<svg width="28" height="28" viewBox="0 0 28 28" fill="none" xmlns="http://www.w3.org/2000/svg">
<path fill-rule="evenodd" clip-rule="evenodd" d="M4.39149 10.9803C4.12421 11.8685 3.98079 12.8088 3.98079 13.7814C3.98079 14.754 4.12421 15.6942 4.39149 16.5825H8.75316C8.646 15.717 8.58673 14.7842 8.58673 13.7814C8.58673 12.7786 8.646 11.8458 8.75316 10.9803H4.39149ZM5.23617 9.00171H9.10335C9.56702 7.02273 10.2943 5.48956 11.0824 4.35713C8.57417 5.10111 6.48513 6.79062 5.23617 9.00171ZM13.9657 4.12053C13.1377 4.7584 11.8713 6.26754 11.1403 9.00171H16.7911C16.0601 6.26754 14.7937 4.7584 13.9657 4.12053ZM17.1844 10.9803H10.747C10.6314 11.8258 10.5653 12.7575 10.5653 13.7814C10.5653 14.8052 10.6314 15.7369 10.747 16.5825H17.1844C17.3 15.7369 17.3661 14.8052 17.3661 13.7814C17.3661 12.7575 17.3 11.8258 17.1844 10.9803ZM19.1782 16.5825C19.2854 15.717 19.3447 14.7842 19.3447 13.7814C19.3447 12.7786 19.2854 11.8458 19.1782 10.9803H23.5405C23.8072 11.8672 23.9506 12.8071 23.9506 13.7814C23.9506 14.7557 23.8072 15.6956 23.5405 16.5825H19.1782ZM16.7911 18.5611H11.1403C11.8713 21.2952 13.1377 22.8044 13.9657 23.4422C14.7937 22.8044 16.0601 21.2952 16.7911 18.5611ZM11.0824 23.2056C10.2943 22.0732 9.56702 20.54 9.10335 18.5611L5.23617 18.5611C6.48513 20.7722 8.57417 22.4617 11.0824 23.2056ZM16.8492 23.2053C17.6372 22.0729 18.3644 20.5399 18.828 18.5611H22.6959C21.4468 20.772 19.3567 22.4612 16.8492 23.2053ZM22.6959 9.00171H18.828C18.3644 7.02291 17.6372 5.48985 16.8492 4.35745C19.3567 5.10155 21.4468 6.79078 22.6959 9.00171ZM2.00221 13.7814C2.00221 7.24162 7.37085 1.9624 13.9657 1.9624C19.0934 1.9624 23.474 5.15087 25.1741 9.64066C25.6625 10.9304 25.9292 12.3262 25.9292 13.7814C25.9292 15.2366 25.6625 16.6323 25.1741 17.9221C23.474 22.4119 19.0934 25.6004 13.9657 25.6004C7.37085 25.6004 2.00221 20.3212 2.00221 13.7814Z" fill="#2990FF"/>
</svg>
