<svg width="25" height="25" viewBox="0 0 25 25" fill="none" xmlns="http://www.w3.org/2000/svg">
<path fill-rule="evenodd" clip-rule="evenodd" d="M17.4183 1.89398C17.632 1.86998 17.8478 1.86998 18.0616 1.89398C18.6356 1.95843 19.1024 2.22417 19.5334 2.56153C19.9401 2.87982 20.3916 3.3254 20.9212 3.84809L20.994 3.91996C21.5369 4.45561 21.9989 4.91156 22.3289 5.32283C22.6783 5.75827 22.9544 6.23178 23.0212 6.81694C23.046 7.03429 23.046 7.25377 23.0212 7.47112C22.9544 8.05628 22.6783 8.52979 22.3289 8.96523C21.9989 9.37649 21.5369 9.83243 20.9941 10.3681L8.9775 22.2264C8.95017 22.2534 8.92313 22.2801 8.89636 22.3066C8.47809 22.7203 8.12249 23.072 7.67045 23.284C7.58506 23.324 7.49775 23.3598 7.40885 23.3913C6.93821 23.558 6.43806 23.5574 5.84976 23.5567C5.8121 23.5567 5.77407 23.5566 5.73567 23.5566H5.61654C4.87871 23.5567 4.25017 23.5567 3.74179 23.499C3.20356 23.4379 2.68906 23.3026 2.23763 22.9529C2.04549 22.804 1.87295 22.6315 1.72411 22.4393C1.3744 21.9879 1.23908 21.4734 1.17799 20.9352C1.12029 20.4268 1.12031 19.7982 1.12034 19.0604L1.12034 19.0103C1.12034 18.9727 1.1203 18.9355 1.12026 18.8987C1.11962 18.3236 1.11907 17.8349 1.27806 17.3743C1.318 17.2585 1.36527 17.1455 1.41959 17.0357C1.63581 16.599 1.98402 16.2562 2.3938 15.8527C2.42006 15.8268 2.44656 15.8007 2.47331 15.7743L14.5587 3.84806C15.0883 3.32538 15.5398 2.87981 15.9464 2.56153C16.3774 2.22417 16.8443 1.95843 17.4183 1.89398ZM17.8607 3.68274C17.7804 3.67372 17.6994 3.67372 17.6191 3.68274C17.5106 3.69492 17.356 3.74405 17.0559 3.97896C16.7406 4.22574 16.3626 4.59679 15.7869 5.16493L15.0913 5.85131L19.0499 9.75774L19.693 9.12313C20.2826 8.54128 20.6684 8.15859 20.925 7.83877C21.1696 7.53387 21.2203 7.37662 21.2328 7.26687C21.2421 7.18524 21.2421 7.10282 21.2328 7.02119C21.2203 6.91144 21.1696 6.75419 20.925 6.44929C20.6684 6.12947 20.2826 5.74678 19.693 5.16493C19.1173 4.59679 18.7393 4.22574 18.424 3.97896C18.1239 3.74405 17.9692 3.69492 17.8607 3.68274ZM17.7686 11.0222L13.81 7.11575L3.73764 17.0555C3.20604 17.5801 3.0977 17.7031 3.03273 17.8344C3.01233 17.8756 2.99457 17.918 2.97957 17.9615C2.9318 18.0999 2.92034 18.2634 2.92034 19.0103C2.92034 19.812 2.9217 20.3374 2.96651 20.7322C3.00923 21.1086 3.08154 21.2524 3.14709 21.337C3.20299 21.4092 3.26779 21.474 3.33995 21.5299C3.42457 21.5954 3.5684 21.6677 3.94479 21.7105C4.33956 21.7553 4.86497 21.7566 5.66667 21.7566H5.73567C6.49966 21.7566 6.66657 21.7446 6.80803 21.6945C6.84142 21.6827 6.87421 21.6693 6.90628 21.6542C7.04215 21.5905 7.16938 21.4818 7.71317 20.9452L17.7686 11.0222Z" fill="#2990FF"/>
</svg>
