<svg width="28" height="28" viewBox="0 0 28 28" fill="none" xmlns="http://www.w3.org/2000/svg">
<path fill-rule="evenodd" clip-rule="evenodd" d="M12 3.89998C9.93798 3.89998 8.26764 5.57001 8.26764 7.62855C8.26764 9.68709 9.93798 11.3571 12 11.3571C14.062 11.3571 15.7323 9.68709 15.7323 7.62855C15.7323 5.57001 14.062 3.89998 12 3.89998ZM6.46764 7.62855C6.46764 4.57451 8.94525 2.09998 12 2.09998C15.0547 2.09998 17.5323 4.57451 17.5323 7.62855C17.5323 10.6826 15.0547 13.1571 12 13.1571C8.94525 13.1571 6.46764 10.6826 6.46764 7.62855ZM4.11957 16.2241C5.15411 15.2699 6.41697 14.9571 7.36762 14.9571H16.6323C17.583 14.9571 18.8458 15.2699 19.8804 16.2241C20.9368 17.1984 21.65 18.7438 21.65 21C21.65 21.497 21.247 21.9 20.75 21.9C20.2529 21.9 19.85 21.497 19.85 21C19.85 19.1418 19.2764 18.1158 18.66 17.5473C18.0218 16.9586 17.2258 16.7571 16.6323 16.7571H7.36762C6.77416 16.7571 5.9782 16.9586 5.33994 17.5473C4.72352 18.1158 4.14998 19.1418 4.14998 21C4.14998 21.497 3.74703 21.9 3.24998 21.9C2.75292 21.9 2.34998 21.497 2.34998 21C2.34998 18.7438 3.06319 17.1984 4.11957 16.2241Z" fill="#2990FF"/>
</svg>
