<svg width="28" height="28" viewBox="0 0 28 28" fill="none" xmlns="http://www.w3.org/2000/svg">
<path fill-rule="evenodd" clip-rule="evenodd" d="M3.00244 5.90003C3.00244 5.35367 3.44536 4.91075 3.99173 4.91075H18.9565C19.5029 4.91075 19.9458 5.35367 19.9458 5.90003C19.9458 6.4464 19.5029 6.88932 18.9565 6.88932H3.99173C3.44536 6.88932 3.00244 6.4464 3.00244 5.90003ZM3.00244 10.8226C3.00244 10.2763 3.44536 9.83334 3.99173 9.83334H11.4741C12.0205 9.83334 12.4634 10.2763 12.4634 10.8226C12.4634 11.369 12.0205 11.8119 11.4741 11.8119H3.99173C3.44536 11.8119 3.00244 11.369 3.00244 10.8226ZM15.5349 11.1052C16.218 10.9056 16.9219 11.0395 17.5498 11.5042L17.5756 11.5233L17.6001 11.5441C18.6155 12.4029 18.8762 13.5491 18.6777 14.6822C18.4904 15.7516 17.8987 16.8367 17.1916 17.823C16.5331 18.7416 15.7192 19.6496 14.8827 20.477C15.149 20.4875 15.5325 20.4371 16.0749 20.2478C17.0663 19.7465 18.3132 18.7651 19.2818 17.9129C20.098 17.1947 21.3776 17.5079 21.8003 18.4332L23.4011 17.38C23.8575 17.0797 24.471 17.2063 24.7713 17.6628C25.0716 18.1192 24.945 18.7327 24.4885 19.033L22.3937 20.4111C21.5651 20.9563 20.519 20.5963 20.1237 19.7994C19.1707 20.6049 17.9668 21.521 16.9002 22.0472L16.8496 22.0722L16.7966 22.0912C15.5806 22.5276 14.4813 22.6032 13.5846 22.1562C13.4698 22.0989 13.3625 22.0353 13.2623 21.9661C12.8441 22.3239 12.4427 22.6482 12.0765 22.9294C11.6431 23.262 11.022 23.1803 10.6894 22.7469C10.3567 22.3135 10.4384 21.6925 10.8718 21.3598C11.2615 21.0607 11.6891 20.7126 12.1307 20.3294C12.0968 20.2194 12.0677 20.1091 12.043 19.9994C11.6797 18.3888 12.0975 16.3086 12.5263 14.9543L12.5292 14.9453L12.5322 14.9364C12.8013 14.1396 13.3265 12.9691 14.0579 12.1295C14.4224 11.7111 14.9137 11.2868 15.5349 11.1052ZM13.8824 18.675C14.5081 18.0286 15.0984 17.347 15.5836 16.6702C16.2233 15.7778 16.6168 14.9799 16.7288 14.3408C16.8273 13.7784 16.7093 13.395 16.3479 13.0768C16.1981 12.9726 16.1332 12.9917 16.092 13.0038L16.0899 13.0044C15.9846 13.0351 15.7963 13.1461 15.5498 13.4292C15.0611 13.9901 14.64 14.8818 14.4097 15.5607C14.1077 16.5173 13.875 17.6926 13.8824 18.675ZM3.00244 15.253C3.00244 14.7066 3.44536 14.2637 3.99173 14.2637H8.98C9.52637 14.2637 9.96929 14.7066 9.96929 15.253C9.96929 15.7993 9.52637 16.2422 8.98 16.2422H3.99173C3.44536 16.2422 3.00244 15.7993 3.00244 15.253Z" fill="#2990FF"/>
</svg>
