<svg xmlns="http://www.w3.org/2000/svg" width="24" height="24" fill="none" viewBox="0 0 512 512"><g clip-path="url(#one_svg__a)"><mask id="one_svg__b" width="512" height="512" x="0" y="0" maskUnits="userSpaceOnUse" style="mask-type: luminance;"><path fill="#fff" d="M512 0H0v512h512z"></path></mask><g mask="url(#one_svg__b)"><mask id="one_svg__c" width="512" height="512" x="0" y="0" maskUnits="userSpaceOnUse" style="mask-type: luminance;"><path fill="#fff" d="M0 0h512v512H0z"></path></mask><g mask="url(#one_svg__c)"><path fill="url(#one_svg__d)" d="m190.064 174.687 45.989-91.62c5.318-10.562 18.18-14.802 28.671-9.484 4.096 2.084 7.402 5.46 9.486 9.629l43.474 88.385c3.521 7.257 10.491 12.144 18.467 13.078l90.9 10.922c12.36 1.509 21.198 12.791 19.761 25.222-.647 5.102-2.946 9.845-6.611 13.438l-71.93 70.923c-2.946 2.875-4.311 6.899-3.808 10.995l12 95.714c1.725 13.725-7.976 26.228-21.629 27.953-5.174.647-10.347-.287-14.946-2.802l-75.954-41.534c-5.533-3.018-12.144-3.09-17.677-.216l-78.756 40.384c-11.066 5.677-24.576 1.222-30.253-9.916-2.155-4.168-2.874-8.839-2.227-13.438l6.252-43.977c3.089-21.485 16.383-40.168 35.641-50.013l87.379-44.623c2.3-1.15 3.234-4.024 2.084-6.396-.934-1.796-2.874-2.874-4.886-2.587l-106.925 15.378c-16.311 2.299-32.839-2.299-45.701-12.791l-35.57-29.03c-10.132-8.264-11.785-23.354-3.521-33.558 3.88-4.742 9.413-7.832 15.45-8.623l91.259-11.713a17.85 17.85 0 0 0 13.581-9.7"></path><path fill="url(#one_svg__e)" d="M270.976 99.38c-9.27-2.084-19.114 2.371-23.569 11.281l-46.061 91.619a17.74 17.74 0 0 1-13.581 9.701l-91.26 11.784c-5.892.791-11.282 3.665-15.09 8.192l33.773 27.594c10.635 8.694 24.432 12.503 38.013 10.563l106.853-15.306c6.323-.862 12.503 2.299 15.305 7.976 3.665 7.258.791 16.168-6.467 19.905l-27.881 14.228 31.761-4.599c2.012-.288 4.024.79 4.887 2.587 1.221 2.371.215 5.245-2.084 6.395l-87.379 44.624c-19.258 9.844-32.552 28.527-35.642 50.013l-4.096 28.527c3.737 3.737 9.629 4.743 14.516 2.228l78.612-40.384a28.92 28.92 0 0 1 27.091.359l75.953 41.534c2.731 1.509 5.893 2.084 8.982 1.725 8.049-1.007 13.869-8.48 12.863-16.743l-11.928-95.787c-.863-7.186 1.581-14.3 6.682-19.33l71.93-70.923a12.8 12.8 0 0 0 2.803-4.24l-88.529-10.635c-7.977-.934-14.875-5.892-18.468-13.078l-3.449-7.114a33.77 33.77 0 0 1-16.815-16.024z"></path><path fill="url(#one_svg__f)" d="M269.251 64.6c-15.521-7.832-34.348-1.58-42.108 13.94l-46.061 91.691c-1.15 2.3-3.378 3.881-5.893 4.168L83.93 186.184c-8.623 1.078-16.527 5.533-21.989 12.287-11.712 14.516-9.485 35.786 4.959 47.57l35.641 29.103c15.018 12.216 34.348 17.605 53.462 14.874l75.523-10.85-59.211 30.252c-22.204 11.353-37.438 32.767-40.959 57.486l-6.323 43.977c-.934 6.683.143 13.438 3.233 19.474 8.12 16.024 27.809 22.419 43.834 14.228l78.684-40.385c2.587-1.365 5.677-1.293 8.264.144l75.953 41.462c6.396 3.521 13.797 4.958 21.055 4.024 19.186-2.443 32.695-20.048 30.324-39.162l-11.929-95.787c-.143-.934.216-1.94.863-2.587l71.929-70.923c5.246-5.246 8.623-12.073 9.486-19.402 2.083-17.893-10.564-34.133-28.456-36.288l-90.972-10.923c-4.527-.503-8.551-3.377-10.635-7.545l-43.402-88.457c-3.018-6.108-7.977-11.066-14.013-14.156m-24.216 22.923c2.803-5.605 9.629-7.833 15.162-5.03 2.156 1.078 3.952 2.946 5.03 5.174l43.474 88.385c5.03 10.275 14.875 17.246 26.228 18.611l90.973 10.922c6.826.791 11.712 7.042 10.922 14.013a12.94 12.94 0 0 1-3.665 7.545l-71.93 70.923c-5.101 5.03-7.545 12.144-6.682 19.33l11.928 95.787c1.006 8.263-4.814 15.737-12.863 16.743-3.089.359-6.251-.216-8.982-1.725l-75.953-41.534c-8.408-4.599-18.54-4.671-27.091-.287l-78.684 40.384c-6.108 3.09-13.581.647-16.743-5.533a12.97 12.97 0 0 1-1.222-7.545l6.252-43.905c2.587-18.252 13.94-34.133 30.252-42.468l87.379-44.624c7.33-3.737 10.204-12.647 6.539-19.905-2.874-5.677-8.982-8.838-15.305-7.976l-106.925 15.306a48.93 48.93 0 0 1-37.941-10.563l-35.57-29.103c-5.892-4.814-6.826-13.509-2.011-19.401 2.227-2.731 5.389-4.527 8.838-4.959l91.259-11.784c9.198-1.15 17.175-6.827 21.342-15.09z"></path></g></g></g><defs><linearGradient id="one_svg__d" x1="255.742" x2="255.742" y1="71.283" y2="440.058" gradientUnits="userSpaceOnUse"><stop stop-color="#FFF0C2"></stop><stop offset="1" stop-color="#FFEBBA"></stop></linearGradient><linearGradient id="one_svg__e" x1="258.688" x2="359.864" y1="98.876" y2="429.997" gradientUnits="userSpaceOnUse"><stop stop-color="#FFD147"></stop><stop offset="1" stop-color="#FFB526"></stop></linearGradient><linearGradient id="one_svg__f" x1="255.742" x2="344.487" y1="61.223" y2="450.046" gradientUnits="userSpaceOnUse"><stop stop-color="#E58F0D"></stop><stop offset="1" stop-color="#EB7814"></stop></linearGradient><clipPath id="one_svg__a"><path fill="#fff" d="M0 0h512v512H0z"></path></clipPath></defs></svg>